<svg id="search_icon" width="32" height="32" viewBox="0 0 32 32" fill="none" xmlns="http://www.w3.org/2000/svg">
<g filter="url(#filter0_d)">
<path d="M19.75 0C20.5078 0 21.2383 0.0976563 21.9414 0.292969C22.6445 0.488281 23.3008 0.765625 23.9102 1.125C24.5195 1.48438 25.0742 1.91406 25.5742 2.41406C26.0742 2.91406 26.5078 3.47266 26.875 4.08984C27.2422 4.70703 27.5195 5.36328 27.707 6.05859C27.8945 6.75391 27.9922 7.48438 28 8.25C28 9.00781 27.9023 9.73828 27.707 10.4414C27.5117 11.1445 27.2344 11.8008 26.875 12.4102C26.5156 13.0195 26.0859 13.5742 25.5859 14.0742C25.0859 14.5742 24.5273 15.0078 23.9102 15.375C23.293 15.7422 22.6367 16.0195 21.9414 16.207C21.2461 16.3945 20.5156 16.4922 19.75 16.5C18.7734 16.5 17.8398 16.3359 16.9492 16.0078C16.0586 15.6797 15.2344 15.207 14.4766 14.5898L5.27734 23.7773C5.12891 23.9258 4.95312 24 4.75 24C4.54688 24 4.37109 23.9258 4.22266 23.7773C4.07422 23.6289 4 23.4531 4 23.25C4 23.0469 4.07422 22.8711 4.22266 22.7227L13.4102 13.5234C12.793 12.7734 12.3203 11.9531 11.9922 11.0625C11.6641 10.1719 11.5 9.23438 11.5 8.25C11.5 7.49219 11.5977 6.76172 11.793 6.05859C11.9883 5.35547 12.2656 4.69922 12.625 4.08984C12.9844 3.48047 13.4141 2.92578 13.9141 2.42578C14.4141 1.92578 14.9727 1.49219 15.5898 1.125C16.207 0.757812 16.8633 0.480469 17.5586 0.292969C18.2539 0.105469 18.9844 0.0078125 19.75 0ZM19.75 15C20.6797 15 21.5547 14.8242 22.375 14.4727C23.1953 14.1211 23.9102 13.6367 24.5195 13.0195C25.1289 12.4023 25.6094 11.6875 25.9609 10.875C26.3125 10.0625 26.4922 9.1875 26.5 8.25C26.5 7.32031 26.3242 6.44531 25.9727 5.625C25.6211 4.80469 25.1367 4.08984 24.5195 3.48047C23.9023 2.87109 23.1875 2.39062 22.375 2.03906C21.5625 1.6875 20.6875 1.50781 19.75 1.5C18.8203 1.5 17.9453 1.67578 17.125 2.02734C16.3047 2.37891 15.5898 2.86328 14.9805 3.48047C14.3711 4.09766 13.8906 4.8125 13.5391 5.625C13.1875 6.4375 13.0078 7.3125 13 8.25C13 9.17969 13.1758 10.0547 13.5273 10.875C13.8789 11.6953 14.3633 12.4102 14.9805 13.0195C15.5977 13.6289 16.3125 14.1094 17.125 14.4609C17.9375 14.8125 18.8125 14.9922 19.75 15Z" fill="black"/>
</g>
<defs>
<filter id="filter0_d" x="0" y="0" width="32" height="32" filterUnits="userSpaceOnUse" color-interpolation-filters="sRGB">
<feFlood flood-opacity="0" result="BackgroundImageFix"/>
<feColorMatrix in="SourceAlpha" type="matrix" values="0 0 0 0 0 0 0 0 0 0 0 0 0 0 0 0 0 0 127 0"/>
<feOffset dy="4"/>
<feGaussianBlur stdDeviation="2"/>
<feColorMatrix type="matrix" values="0 0 0 0 0 0 0 0 0 0 0 0 0 0 0 0 0 0 0.25 0"/>
<feBlend mode="normal" in2="BackgroundImageFix" result="effect1_dropShadow"/>
<feBlend mode="normal" in="SourceGraphic" in2="effect1_dropShadow" result="shape"/>
</filter>
</defs>
</svg>
